<svg xmlns="http://www.w3.org/2000/svg" viewBox="0 0 1024 1024" role="img" aria-label="Vantage icon">
  <defs>
    <linearGradient id="bg" x1="128" y1="112" x2="896" y2="928" gradientUnits="userSpaceOnUse">
      <stop offset="0" stop-color="#1d3163"/>
      <stop offset="1" stop-color="#15244a"/>
    </linearGradient>
    <linearGradient id="lens" x1="408" y1="392" x2="640" y2="640" gradientUnits="userSpaceOnUse">
      <stop offset="0" stop-color="#1c68ec"/>
      <stop offset="1" stop-color="#00e9df"/>
    </linearGradient>
    <linearGradient id="accent" x1="352" y1="260" x2="672" y2="376" gradientUnits="userSpaceOnUse">
      <stop offset="0" stop-color="#1c68ec"/>
      <stop offset="1" stop-color="#00e9df"/>
    </linearGradient>
    <filter id="shadow" x="-20%" y="-20%" width="140%" height="140%">
      <feDropShadow dx="0" dy="18" stdDeviation="18" flood-color="#081126" flood-opacity="0.38"/>
    </filter>
  </defs>

  <rect x="64" y="64" width="896" height="896" rx="184" fill="url(#bg)"/>

  <g filter="url(#shadow)" transform="translate(0 -74)">
    <rect x="184" y="346" width="656" height="368" rx="72" fill="#f0f2f6"/>
    <path d="M354 346l64-92h188l64 92z" fill="url(#accent)"/>
    <rect x="270" y="292" width="138" height="72" rx="26" fill="#f0f2f6"/>
    <circle cx="338" cy="548" r="38" fill="#15244a"/>

    <circle cx="572" cy="550" r="178" fill="#15244a"/>
    <circle cx="572" cy="550" r="142" fill="#f0f2f6"/>
    <circle cx="570" cy="548" r="104" fill="url(#lens)"/>
    <circle cx="570" cy="548" r="58" fill="#15244a" opacity="0.48"/>
    <circle cx="536" cy="506" r="24" fill="#f0f2f6" opacity="0.9"/>
  </g>

  <text x="512" y="828"
        fill="#f0f2f6"
        font-family="Avenir Next, Inter, Helvetica Neue, Arial, sans-serif"
        font-size="118"
        font-weight="800"
        letter-spacing="0"
        text-anchor="middle">Vantage</text>

  <rect x="64" y="64" width="896" height="896" rx="184" fill="none" stroke="#f0f2f6" stroke-width="10" opacity="0.18"/>
</svg>
